<svg viewBox="0 0 100 120" xmlns="http://www.w3.org/2000/svg">
  <!-- Lightbulb -->
  <defs>
    <radialGradient id="bulbGlow" cx="50%" cy="40%" r="50%" fx="50%" fy="40%">
      <stop offset="0%" stop-color="#ffffd0" />
      <stop offset="100%" stop-color="#ffcc00" />
    </radialGradient>
    <filter id="glow" x="-30%" y="-30%" width="160%" height="160%">
      <feGaussianBlur stdDeviation="3" result="blur" />
      <feComposite in="SourceGraphic" in2="blur" operator="over" />
    </filter>
  </defs>
  
  <!-- Glow effect -->
  <circle cx="50" cy="40" r="30" fill="url(#bulbGlow)" opacity="0.3" filter="url(#glow)" />
  
  <!-- Bulb glass -->
  <path d="M30,40 a20,25 0 1,0 40,0 a20,30 0 1,0 -40,0" fill="#ffcc00" />
  <ellipse cx="50" cy="40" rx="20" ry="25" fill="url(#bulbGlow)" />
  
  <!-- Bulb base -->
  <rect x="42" y="65" width="16" height="5" rx="1" fill="#ddd" />
  <rect x="44" y="70" width="12" height="5" rx="1" fill="#bbb" />
  <rect x="46" y="75" width="8" height="5" rx="1" fill="#999" />
  
  <!-- Filaments -->
  <line x1="40" y1="40" x2="60" y2="40" stroke="#ff9900" stroke-width="1.5" />
  <line x1="45" y1="35" x2="55" y2="45" stroke="#ff9900" stroke-width="1.5" />
  <line x1="45" y1="45" x2="55" y2="35" stroke="#ff9900" stroke-width="1.5" />
  
  <!-- Letter M -->
  <path d="M36,30 L45,50 L50,40 L55,50 L64,30" 
        stroke="#6419E6" 
        stroke-width="5" 
        stroke-linecap="round" 
        stroke-linejoin="round" 
        fill="none" />
</svg>